<svg xmlns="http://www.w3.org/2000/svg" width="64.312" height="74.004" viewBox="0 0 64.312 74.004">
  <g id="_x31_3" transform="translate(-8 33)">
    <path id="icon_13_" d="M63.548,21.118c-5.209,0-11.175-3.565-17.4-7.286A118.314,118.314,0,0,0,35.395,7.9a34.537,34.537,0,0,0-8.726-2.914C17.721,3.473,12.9,6.513,11.484,9.581a4.472,4.472,0,0,0,1.143,5.513c1.131.944,7.568,5.092,23.161-5.877l1.506,2.14C20.571,23.121,12.9,18.731,10.952,17.1A7.082,7.082,0,0,1,9.107,8.487c1.887-4.1,7.608-7.844,18-6.075a37.034,37.034,0,0,1,9.387,3.119,120.231,120.231,0,0,1,10.992,6.056c7.908,4.725,14.736,8.8,19.588,6.012a6.241,6.241,0,0,0,3-5.625A9.1,9.1,0,0,0,65.4,4.193C62.344,2.431,55.316.572,42.623,7.93L41.311,5.666c13.829-8.02,21.848-5.785,25.4-3.741a11.722,11.722,0,0,1,5.984,10.048,8.9,8.9,0,0,1-4.313,7.892A9.485,9.485,0,0,1,63.548,21.118Zm-40.91-6.4-.286-.824c-3.611,1.256-6.688,1.076-8.23-.479a2.9,2.9,0,0,1-.686-3.073c.626-1.752,2.64-2.969,5.388-3.255l-.09-.867c-3.09.321-5.378,1.752-6.119,3.828a3.749,3.749,0,0,0,.887,3.981,6.09,6.09,0,0,0,4.483,1.578A14.262,14.262,0,0,0,22.638,14.722Zm45.839-3.193a7.631,7.631,0,0,0-3.951-6.5c-2.385-1.375-7.764-2.885-16.964,2.448L48,8.229C56.822,3.113,61.867,4.5,64.091,5.781a6.758,6.758,0,0,1,3.514,5.747,4.408,4.408,0,0,1-2.141,3.966l.434.756A5.258,5.258,0,0,0,68.477,11.529ZM52.289,57.439c-.977,2.015-.872,10.371-.576,15.169L51.8,74H35.847L34.521,60.6c-3.184-2.529-5.024-7-6.656-10.982-1.116-2.73-2.285-5.557-3.428-6.228-2.032-1.186-3.018-2.9-2.643-4.571.393-1.71,2.05-2.887,4.344-3.079,2.547-.218,5.365,2.983,8.619,6.69A35.843,35.843,0,0,0,39.416,47.2c.305-.367.7-.864,1.116-1.457L32.41,35.518l-.968-1.308a2.431,2.431,0,0,1-.715-1.736,2.3,2.3,0,0,1,1.989-2.32,4.559,4.559,0,0,1,2.215.305l-.061-.079-1.579-2.093a3.047,3.047,0,0,1-1-2.259,3.109,3.109,0,0,1,.375-1.474,3.077,3.077,0,0,1,4.51-1.012,6.554,6.554,0,0,1,.375-5.373,2.14,2.14,0,0,1,2.163-1.256c4.763.41,16.015,20.237,16.7,22.592C57.515,43.246,53.546,54.857,52.289,57.439ZM35.071,26.368l.227.235,1.684,2.233,6.734,9.473A9.793,9.793,0,0,0,42.085,31.9l-6.464-6.254a.445.445,0,0,0-.253-.079.329.329,0,0,0-.1.009.432.432,0,0,0-.305.227.523.523,0,0,0-.061.227A.431.431,0,0,0,35.071,26.368Zm6.97,17.053c.305-.541.611-1.108.881-1.7L38.7,35.771a17.655,17.655,0,0,0-5.068-3.009l.855,1.169ZM53.9,40.237a79.5,79.5,0,0,0-6.472-11.253c-4.274-6.472-6.734-8.854-7.676-9.36-1,2.311,0,3.943,2.835,8.016.837,1.2,1.788,2.573,2.791,4.17,4.824,7.624-4.309,17.507-4.693,17.926l-.576.611-.794-.262c-1.876-.628-4.03-3.079-6.534-5.923-1.936-2.207-5.181-5.932-6.429-5.809-1.238.1-1.91.619-2.006,1.047-.113.489.445,1.169,1.413,1.736,1.9,1.116,3.123,4.074,4.527,7.493,1.57,3.847,3.358,8.2,6.228,10.206l.489.34,1.212,12.212H49.026c-.166-3.559-.427-12.334.907-15.091C51.548,52.972,54.593,42.584,53.9,40.237Z" transform="translate(-0.381 -33)" fill="#fff"/>
  </g>
</svg>
