<svg xmlns="http://www.w3.org/2000/svg" xmlns:xlink="http://www.w3.org/1999/xlink" width="96.856" height="40.09" viewBox="0 0 96.856 40.09">
  <defs>
    <clipPath id="clip-path">
      <rect id="Rectangle_61" data-name="Rectangle 61" width="96.856" height="40.09" fill="none"/>
    </clipPath>
  </defs>
  <g id="Artwork_6" data-name="Artwork 6" transform="translate(79.949 33.092)">
    <g id="Group_8" data-name="Group 8" transform="translate(-79.949 -33.092)" clip-path="url(#clip-path)">
      <path id="Path_23" data-name="Path 23" d="M44.571,13.185a4.768,4.768,0,0,0,.465-.369c.14-.14.5-.492.755-.737a4.88,4.88,0,0,0,.755-1.009,4.779,4.779,0,0,0,.571-1.211c.114-.439.228-.746.3-1.132A6.188,6.188,0,0,0,47.2,5.7a7,7,0,0,0-.729-1.58A6.583,6.583,0,0,0,45.282,2.7a6.979,6.979,0,0,0-2.133-1.352,11.455,11.455,0,0,0-1.387-.43,5.135,5.135,0,0,0-.9-.114C40.332.773,39.8.72,39.261.737c-.746.018-1.483.088-2.23.132a7.681,7.681,0,0,0-1.545.237q-1.04.277-2.08.606c-.474.149-.939.334-1.4.518-.219.088-.43.2-.641.3A25.973,25.973,0,0,0,28.8,3.862c-.623.369-1.255.737-1.87,1.132s-1.088.729-1.624,1.1c-.369.255-.746.509-1.1.781-.72.544-1.44,1.1-2.142,1.668-.421.334-.816.693-1.22,1.053s-.79.711-1.167,1.071c-.211.193-.4.421-.6.623L17.456,12.86c-.4.4-.808.79-1.2,1.194s-.676.693-1,1.053-.676.8-1.009,1.2c-.211.246-.421.492-.614.755-.439.588-.878,1.176-1.3,1.782s-.737,1.08-1.071,1.65-.729,1.29-1.071,1.949c-.255.492-.509,1-.72,1.51a18.617,18.617,0,0,0-.9,2.493,19.417,19.417,0,0,0-.448,2.072,12.043,12.043,0,0,0-.07,2.774,9.111,9.111,0,0,0,.281,1.72,8.664,8.664,0,0,0,.6,1.606,5.89,5.89,0,0,0,1.808,2.133,6.434,6.434,0,0,0,1.9.957,9.755,9.755,0,0,0,1.589.386c.544.07.922.1,1.387.123a13.861,13.861,0,0,0,2.028-.035,15.836,15.836,0,0,0,2.712-.465c.518-.132,1.036-.29,1.545-.439a21.77,21.77,0,0,0,2.309-.86c.8-.334,1.562-.72,2.326-1.115.386-.2.755-.421,1.124-.65s.93-.571,1.378-.869.86-.588,1.282-.9,1.045-.79,1.554-1.2.746-.641,1.124-.966L35.337,28.7l.693-.579a1.4,1.4,0,0,1,.553-.272c.246-.061.377.07.307.316a.571.571,0,0,1-.114.211c-.255.29-.5.588-.772.851-.448.43-.913.851-1.387,1.264s-.8.693-1.2,1.036-.939.825-1.422,1.22-.816.65-1.229.966-.658.527-.992.772-.483.334-.729.492-.7.465-1.053.685l-1.176.7c-.114.07-.219.149-.342.211-.667.351-1.325.729-2.019,1.045s-1.422.606-2.133.9c-.413.158-.834.3-1.255.421-.632.184-1.255.369-1.9.5a24.382,24.382,0,0,1-2.853.448c-.746.061-1.5.079-2.247.114-.246.009-.5.026-.755.018l-2.519-.105a15.808,15.808,0,0,1-2.721-.421,14.73,14.73,0,0,1-1.483-.421,11.561,11.561,0,0,1-2.054-.9,9.613,9.613,0,0,1-1.624-1.132,8.181,8.181,0,0,1-1.422-1.6A7.312,7.312,0,0,1,.6,33.681a12.324,12.324,0,0,1-.448-1.659A10.376,10.376,0,0,1,0,30.486,19.136,19.136,0,0,1,.1,27.773a16.266,16.266,0,0,1,.43-2.317c.114-.465.255-.922.4-1.378A18.39,18.39,0,0,1,2.016,21.4a18.029,18.029,0,0,1,1.115-1.984c.228-.351.439-.72.676-1.062.43-.6.86-1.194,1.317-1.773.307-.4.65-.781.983-1.159q.764-.843,1.554-1.659c.369-.369.755-.72,1.141-1.071s.8-.737,1.22-1.088.957-.781,1.448-1.159,1.115-.834,1.677-1.255c.421-.316.843-.641,1.282-.93s.8-.492,1.2-.729.9-.518,1.361-.772.746-.386,1.115-.579l.465-.255c.369-.193.746-.386,1.124-.571.632-.3,1.264-.606,1.9-.887s1.378-.606,2.072-.878,1.58-.606,2.37-.9c.4-.149.816-.3,1.229-.421Q28.828,1.8,30.4,1.352c.562-.158,1.141-.29,1.712-.421.729-.167,1.466-.342,2.2-.474S35.969.193,36.8.088A25.947,25.947,0,0,1,40.314-.07c.4.009.808.053,1.211.061a11.21,11.21,0,0,1,1.861.237,12.567,12.567,0,0,1,2.256.6c.448.176.913.342,1.343.553a11.008,11.008,0,0,1,1.08.658,5.328,5.328,0,0,1,1.167,1.036,4.486,4.486,0,0,1,.974,1.861,5,5,0,0,1,.132,1.361,8.659,8.659,0,0,1-.114,1.431,6.057,6.057,0,0,1-.29.9,5.32,5.32,0,0,1-.9,1.483,8.875,8.875,0,0,1-1.773,1.615A14.642,14.642,0,0,1,45.054,13l-.456.219-.018-.035" transform="translate(0.012 0.07)" fill="#fff"/>
      <path id="Path_24" data-name="Path 24" d="M376.908,28.059l-.149.105a9.561,9.561,0,0,1-1.545,1.088,3.693,3.693,0,0,1-1.966.571,2.466,2.466,0,0,1-.913-.114,1.006,1.006,0,0,1-.579-.456,1.088,1.088,0,0,1-.1-.816c.061-.219.14-.421.219-.65l-.509.4a9.545,9.545,0,0,1-1.229.86,6.154,6.154,0,0,1-1.519.65,4.064,4.064,0,0,1-2.054.026,1.275,1.275,0,0,1-.869-.6,1.106,1.106,0,0,1-.044-1.045,4.715,4.715,0,0,1,.571-.992c.14-.176.263-.351.395-.535a6.838,6.838,0,0,1,1.431-1.369,6.706,6.706,0,0,1,.65-.456,9.24,9.24,0,0,1,1-.509,8.725,8.725,0,0,1,1.9-.579,6.346,6.346,0,0,1,1.475-.123,2.309,2.309,0,0,1,.65.114.861.861,0,0,1,.544.693c.009.026,0,.061.009.088v.114l.132-.1.061-.061a1.913,1.913,0,0,1,1.7-.711c.342.026.693.026,1.036.035h.088c.29.053.351.176.193.421a2.6,2.6,0,0,1-.167.228l-1.4,1.729a20.66,20.66,0,0,0-1.361,1.949.8.8,0,0,0-.149.43.29.29,0,0,0,.263.325.966.966,0,0,0,.562-.088,3.643,3.643,0,0,0,.948-.553c.211-.176.43-.334.65-.492a.246.246,0,0,0,.114-.176,1.624,1.624,0,0,1,.562-1.027,1.578,1.578,0,0,1,1.878-.211.685.685,0,0,1,.2.93,2.468,2.468,0,0,1-.43.474,1.37,1.37,0,0,0-.509.825.781.781,0,0,0,.483.825,1.334,1.334,0,0,0,1.009-.061,2.862,2.862,0,0,0,1.071-.869,6.038,6.038,0,0,0,.851-1.387c.246-.571.474-1.159.7-1.738l.439-1.08a.569.569,0,0,0,.018-.088l-.079.044c-.281.237-.553.483-.843.711-.474.36-.957.711-1.44,1.053-.237.167-.492.325-.737.483a1.211,1.211,0,0,1-.255.123c-.035.009-.123-.009-.132-.035a.219.219,0,0,1,.009-.158.341.341,0,0,1,.114-.1l.395-.281c.421-.3.843-.6,1.246-.9.588-.448,1.167-.922,1.756-1.369a1.59,1.59,0,0,0,.448-.562,1.667,1.667,0,0,1,.5-.606,1.422,1.422,0,0,1,1.361-.2.246.246,0,0,1,.123.421,2.818,2.818,0,0,1-.492.474,7.365,7.365,0,0,1-.711.439.6.6,0,0,0-.272.729,1.526,1.526,0,0,0,.167.334,3.257,3.257,0,0,1,.544,1.659,2.922,2.922,0,0,1-.255,1.246,3.267,3.267,0,0,1-.527.834,1.336,1.336,0,0,0-.2.263,5.173,5.173,0,0,0,.553-.246c.377-.219.737-.448,1.1-.693a13.253,13.253,0,0,0,1.668-1.369c.2-.193.421-.36.632-.544l.72-.658.7-.632c.132-.123.246-.246.413-.413h-.3l-.948.07a.693.693,0,0,1-.2,0c-.053-.009-.123-.044-.132-.079a.176.176,0,0,1,.07-.149.421.421,0,0,1,.2-.079l1.1-.088a.992.992,0,0,1,.246,0c.246.044.377-.105.518-.263l.737-.843c.457-.509.913-1.018,1.378-1.527s.737-.808,1.124-1.185a5.237,5.237,0,0,1,.869-.711,2.87,2.87,0,0,1,2.273-.369.561.561,0,0,1,.4.228,50.352,50.352,0,0,0-4.038,4.67h.255l1.747.026a.729.729,0,0,1,.255.061.107.107,0,0,1-.018.211,1.228,1.228,0,0,1-.3.044l-1.659.018-.4.018a.307.307,0,0,0-.281.14c-.3.4-.606.8-.9,1.2s-.606.887-.887,1.343a13.847,13.847,0,0,0-.676,1.264,1.2,1.2,0,0,0-.114.421.281.281,0,0,0,.281.325,1,1,0,0,0,.43-.061,7.518,7.518,0,0,0,.922-.474c.377-.237.737-.492,1.088-.755s.456-.386.693-.588c.483-.4.966-.825,1.457-1.211a10.369,10.369,0,0,1,1.694-1.071,13.28,13.28,0,0,1,1.475-.632,7.809,7.809,0,0,1,1.308-.386,5.7,5.7,0,0,1,2.344-.044,1.124,1.124,0,0,1,.729.492.839.839,0,0,1,.026.79,2.772,2.772,0,0,1-.764.93,6.76,6.76,0,0,1-1.264.755,8.734,8.734,0,0,1-1.519.588c-.272.07-.535.176-.808.237s-.746.176-1.124.237a.421.421,0,0,0-.386.325,1.3,1.3,0,0,0-.07.606.752.752,0,0,0,.518.535,1.448,1.448,0,0,0,.72-.009,5.565,5.565,0,0,0,1.422-.474c.395-.211.808-.4,1.185-.623s.667-.465.992-.7.509-.4.764-.6.351-.307.535-.465l1.22-1.053c.29-.246.6-.483.86-.755a8.475,8.475,0,0,0,.571-.693l.834-1.027.553-.685.465-.562,1.229-1.413c.342-.4.667-.8,1.018-1.194.685-.772,1.387-1.545,2.08-2.317l.641-.72,1.053-1.159,1.053-1.185,1.694-1.835,1-1.115.685-.72.632-.7.7-.737c.334-.342.65-.7,1-1.027a3.419,3.419,0,0,1,2.642-.957,1.2,1.2,0,0,1,.588.184c.062.044.123.1.193.158l-.413.448-.72.746c-.176.184-.342.386-.518.571L419.8,10.627l-1,1.08-1.027,1.159-2.107,2.317-.623.711-1.08,1.194-1.571,1.791c-.369.421-.755.843-1.115,1.282-.5.606-.992,1.22-1.483,1.835l-.676.843-.746.983c-.465.623-.93,1.246-1.387,1.878s-.711,1.009-1.045,1.536a6.984,6.984,0,0,0-.43.843,1.053,1.053,0,0,0-.079.36.356.356,0,0,0,.36.413,1,1,0,0,0,.509-.132,7.653,7.653,0,0,0,1.562-.992c.386-.316.764-.641,1.15-.966l1.168-1,1.519-1.334a1.136,1.136,0,0,0,.132-.149l1.009-1.255c.395-.492.8-.983,1.2-1.466s.676-.79,1.018-1.185l1.633-1.887c.351-.4.711-.781,1.062-1.176s.676-.781,1.018-1.159l1.65-1.808,1.018-1.132.676-.729.614-.693.492-.535,2.344-2.528c.413-.439.816-.887,1.246-1.3a3.456,3.456,0,0,1,2.563-1.045,1.624,1.624,0,0,1,.7.167,1.841,1.841,0,0,1,.237.176,1.216,1.216,0,0,1-.149.184l-.553.571-.86.913c-.36.377-.72.755-1.071,1.141s-.685.772-1.027,1.15l-1.659,1.8-1.045,1.167-.658.711-.606.693-.465.527L420.753,17.2c-.351.4-.711.781-1.062,1.185-.676.781-1.352,1.571-2.019,2.37q-.816.983-1.606,1.993c-.527.676-1.036,1.361-1.545,2.045-.369.492-.737.992-1.088,1.5s-.606.922-.878,1.4a3.1,3.1,0,0,0-.228.6.607.607,0,0,0-.018.219.342.342,0,0,0,.334.342.913.913,0,0,0,.369-.061,4.379,4.379,0,0,0,.948-.509c.421-.307.843-.614,1.246-.939.562-.456,1.1-.957,1.668-1.413a11.988,11.988,0,0,1,1.554-1.018,11.864,11.864,0,0,1,1.606-.772,7.107,7.107,0,0,1,2.826-.606,4.478,4.478,0,0,1,.632.079c.053.009.1.07.149.114a.587.587,0,0,1-.123.132c-.105.053-.219.1-.325.14a5.976,5.976,0,0,0-1.317.843c-.413.342-.825.693-1.2,1.062a8.679,8.679,0,0,0-1.089,1.308,5.9,5.9,0,0,0-.7,1.273,1.713,1.713,0,0,0-.114.448.426.426,0,0,0,.5.492,1.975,1.975,0,0,0,.772-.228,7.942,7.942,0,0,0,1.492-.983l.974-.834a.3.3,0,0,0,.114-.246,2.572,2.572,0,0,1,.421-1.325,4.05,4.05,0,0,1,.606-.729,2.731,2.731,0,0,1,.456-.377.246.246,0,0,0,.105-.281,3.625,3.625,0,0,0-.132-.439c-.053-.14-.079-.176-.018-.3a1.588,1.588,0,0,1,.281.026,1.9,1.9,0,0,1,.825.448,1.317,1.317,0,0,1,.421,1.22,3.151,3.151,0,0,1-.579,1.325,8.029,8.029,0,0,1-.588.737c-.211.228-.36.351-.535.527l-.14.132a.667.667,0,0,0,.474.088,2.186,2.186,0,0,0,1.071-.43c.448-.342.887-.7,1.325-1.053.184-.149.342-.316.527-.474a.474.474,0,0,1,.211-.105c.123-.026.193.088.132.2a.43.43,0,0,1-.1.123c-.421.369-.834.746-1.264,1.106a6.609,6.609,0,0,1-1.194.79,2.182,2.182,0,0,1-1.2.167,1.494,1.494,0,0,1-.369-.14l-.325.193a6.973,6.973,0,0,1-1.4.658,8.831,8.831,0,0,1-2.291.562,4.249,4.249,0,0,1-2.37-.386,1.387,1.387,0,0,1-.746-1.036,2.045,2.045,0,0,1,.167-1.211,3,3,0,0,1,.43-.667.176.176,0,0,0,.044-.123l-.14.114c-.4.36-.8.746-1.22,1.088s-1.036.808-1.571,1.176a7.134,7.134,0,0,1-1.062.623,4.611,4.611,0,0,1-2.423.483,1.685,1.685,0,0,1-.667-.2,1,1,0,0,1-.518-1.018,3.577,3.577,0,0,1,.483-1.4,13.819,13.819,0,0,1,1.361-1.9,2.047,2.047,0,0,0-.2.149l-.676.632-.72.65c-.184.158-.36.334-.544.483-.483.4-.966.816-1.466,1.2a8.1,8.1,0,0,1-1.431.878,4.817,4.817,0,0,1-1.615.509,3.358,3.358,0,0,1-1.185-.035,1.063,1.063,0,0,1-.913-1.045,2.028,2.028,0,0,1,.1-.632,6.051,6.051,0,0,1,1.027-1.843l.579-.746a1.087,1.087,0,0,0,.158-.219,1.677,1.677,0,0,0-.167.114c-.606.553-1.194,1.115-1.808,1.659-.228.2-.483.386-.729.571s-.641.492-.983.711-.711.413-1.071.614a4.324,4.324,0,0,1-.439.211,7.342,7.342,0,0,1-3.274.6,2.723,2.723,0,0,1-1.325-.377,1,1,0,0,1-.571-.8,2.083,2.083,0,0,1,.29-1.527l.4-.6-.123.088c-.351.316-.693.658-1.062.957s-.948.746-1.431,1.106a6.111,6.111,0,0,1-1.22.7,4.826,4.826,0,0,1-2.159.483,2.014,2.014,0,0,1-1.071-.3.857.857,0,0,1-.4-.772,2.054,2.054,0,0,1,.211-1.009,10.62,10.62,0,0,1,.606-1.071c.228-.36.474-.7.693-1.08l-.246.219-.246.219-.781.711-.579.509a9.462,9.462,0,0,1-2.475,1.633,10.541,10.541,0,0,1-2.265.667,12.842,12.842,0,0,1-2.326.237,3.915,3.915,0,0,1-1.747-.4,1.861,1.861,0,0,1-.843-.79,4.667,4.667,0,0,1-.2-.518m-2.949-3.6a.418.418,0,0,0-.386-.509.992.992,0,0,0-.413-.009,1.728,1.728,0,0,0-.474.176,8.081,8.081,0,0,0-1.334.939c-.386.325-.755.676-1.124,1.027a9.7,9.7,0,0,0-.693.711c-.219.246-.439.527-.658.8a3.469,3.469,0,0,0-.535.948.408.408,0,0,0,.448.6,1.528,1.528,0,0,0,.325-.061,4.775,4.775,0,0,0,1.141-.527,8.368,8.368,0,0,0,1.448-1.106c.369-.342.7-.729,1.053-1.1a8.136,8.136,0,0,0,1.062-1.4.75.75,0,0,0,.149-.483m23.033,2.87h.149a4.917,4.917,0,0,0,1.15-.377,4.285,4.285,0,0,0,.448-.237,9.7,9.7,0,0,0,.878-.623c.228-.193.413-.439.623-.65a3.124,3.124,0,0,0,.579-.93.9.9,0,0,0,.07-.228.349.349,0,0,0-.421-.421,1.429,1.429,0,0,0-.3.079,2.826,2.826,0,0,0-.939.641c-.386.369-.729.764-1.088,1.15a8.113,8.113,0,0,0-.957,1.29l-.193.316" transform="translate(-333.457 -5.816)" fill="#fff"/>
    </g>
  </g>
</svg>
